<?xml version="1.0" encoding="UTF-8"?>
<svg version="1.1" xmlns="http://www.w3.org/2000/svg" width="512" height="512">
<path d="M0 0 C17.26451509 7.8223661 31.87099758 26.7833246 45.125 40 C45.93339325 40.804375 45.93339325 40.804375 46.75811768 41.625 C52.72442891 47.56877624 58.56113192 53.56261687 64 60 C65.05527287 61.2232749 66.11125473 62.44593856 67.16796875 63.66796875 C68.17490329 64.84078183 69.18141789 66.01395559 70.1875 67.1875 C70.69474609 67.77724609 71.20199219 68.36699219 71.72460938 68.97460938 C73.15645543 70.64416787 74.57975823 72.32056734 76 74 C76.763125 74.89847656 77.52625 75.79695313 78.3125 76.72265625 C80 79 80 79 80.8125 82.25 C82.23133462 86.73053037 84.48611825 89.37894811 87.5390625 92.88671875 C89 95 89 95 89 99 C87.94498291 99.39791748 86.88996582 99.79583496 85.80297852 100.20581055 C81.89452654 101.68599364 77.99659777 103.19231462 74.10131836 104.70678711 C72.41332436 105.35883749 70.72255313 106.00374481 69.02905273 106.64135742 C66.59635754 107.55869663 64.1747786 108.50118955 61.75390625 109.44921875 C60.99348526 109.72964523 60.23306427 110.01007172 59.44960022 110.29899597 C55.33909363 111.90644056 55.33909363 111.90644056 52.8503418 115.37426758 C53.04014612 118.70435803 54.01057205 120.65275157 55.640625 123.5625 C56.21683594 124.60664063 56.79304688 125.65078125 57.38671875 126.7265625 C58.30904297 128.34691406 58.30904297 128.34691406 59.25 130 C59.84941406 131.08023438 60.44882813 132.16046875 61.06640625 133.2734375 C62.69232584 136.19360351 64.33214991 139.10359493 66 142 C66.45729492 142.91910156 66.91458984 143.83820313 67.38574219 144.78515625 C68.83033066 147.14822154 68.83033066 147.14822154 71.28076172 148.03881836 C75.03828648 147.98517799 77.45611058 146.37205056 80.5078125 144.37890625 C81.115112 144.00015854 81.7224115 143.62141083 82.34811401 143.23118591 C84.28277699 142.02199433 86.20427024 140.79368152 88.125 139.5625 C90.0544631 138.33778351 91.9864014 137.11743535 93.92330933 135.90452576 C95.12672918 135.14972829 96.32560493 134.38762647 97.51931763 133.61756897 C100.26090286 131.88672101 101.68782534 131 105 131 C104.40875331 137.31013162 102.96484606 142.97886869 101.05859375 149.01171875 C100.77146011 149.94297073 100.48432648 150.87422272 100.18849182 151.83369446 C98.96876992 155.78915863 97.73359116 159.73974632 96.49926758 163.69067383 C95.59668842 166.58762727 94.70242469 169.4870565 93.80859375 172.38671875 C93.52737167 173.2763884 93.2461496 174.16605804 92.95640564 175.08268738 C92.57084251 176.3347271 92.57084251 176.3347271 92.17749023 177.61206055 C91.83559914 178.70504707 91.83559914 178.70504707 91.48680115 179.82011414 C90.92956169 182.31542134 90.78469284 184.45140181 91 187 C93.73192732 189.73192732 96.82207691 190.23854988 100.45703125 191.19921875 C101.56699715 191.49817802 101.56699715 191.49817802 102.6993866 191.80317688 C104.26617973 192.22265564 105.8339464 192.63851234 107.40258789 193.05102539 C109.79616102 193.68318476 112.18411392 194.3340283 114.57226562 194.98632812 C116.09604804 195.39177727 117.62012782 195.79611079 119.14453125 196.19921875 C119.85615921 196.39496994 120.56778717 196.59072113 121.30097961 196.79240417 C125.20600263 197.79959764 128.11183462 198.18549118 132 197 C134.07664776 189.57988309 135.1011885 182.05774953 136.1640625 174.4375 C136.36261733 173.036406 136.56154723 171.63536511 136.76083374 170.234375 C137.28075178 166.57219544 137.79561783 162.90932337 138.30938721 159.24627686 C138.83598445 155.49838312 139.36742258 151.75117616 139.8984375 148.00390625 C140.93699495 140.66992951 141.97020912 133.33521339 143 126 C148.67470037 126.71265071 153.18795245 128.03421116 158.375 130.3125 C159.09816406 130.60833984 159.82132813 130.90417969 160.56640625 131.20898438 C165.77925077 133.47309977 165.77925077 133.47309977 166.80712891 135.92651367 C167 138 167 138 165.4375 141.0625 C163.93803014 144.30823102 163.98231412 146.28013386 164.703125 149.765625 C164.9978772 151.22754272 164.9978772 151.22754272 165.29858398 152.71899414 C165.53005127 153.80172607 165.76151855 154.88445801 166 156 C166.2462915 157.17618896 166.49258301 158.35237793 166.74633789 159.56420898 C167.29809336 162.18601033 167.852785 164.80704685 168.41088867 167.42749023 C177.40172733 209.77753398 184 253.63463164 184 297 C156.61 297 129.22 297 101 297 C98.96760384 290.90281152 97.20950999 285.07229679 95.8359375 278.83984375 C95.43699016 277.07421302 95.03764127 275.30867298 94.63793945 273.54321289 C94.43222321 272.62847198 94.22650696 271.71373108 94.01455688 270.77127075 C82.73515708 220.79411622 69.23809242 174.04515563 36 134 C35.38753418 133.26015869 35.38753418 133.26015869 34.76269531 132.50537109 C28.86077247 125.39375094 22.77313601 118.48920783 16.4921875 111.7109375 C14.40849745 109.44435302 12.37906899 107.14904127 10.375 104.8125 C7.22933516 101.17767676 3.85540298 97.81494319 0.40625 94.46875 C-1.57601565 92.43499693 -3.4295608 90.36855696 -5.28125 88.21875 C-8.99387092 83.93986466 -12.95743526 79.96512097 -17 76 C-19.69325337 73.35834152 -22.35610635 70.69101254 -25 68 C-25.70253906 67.31679687 -26.40507812 66.63359375 -27.12890625 65.9296875 C-28.97663871 64.02771632 -30.58831224 62.24435027 -32 60 C-31.80078125 57.18359375 -31.80078125 57.18359375 -30 54 C-29.40517822 52.84008545 -29.40517822 52.84008545 -28.79833984 51.65673828 C-27.31032766 48.76335201 -25.75551457 45.91329002 -24.1875 43.0625 C-23.61652588 42.01650635 -23.04555176 40.9705127 -22.45727539 39.89282227 C-15.12680614 26.50792471 -7.57711398 13.24632156 0 0 Z " fill="#000000" transform="translate(167,119)"/>
<path d="M0 0 C3.0118602 1.32210291 4.80540131 2.63389503 6.84765625 5.203125 C7.62302734 6.16798828 7.62302734 6.16798828 8.4140625 7.15234375 C8.95804687 7.84457031 9.50203125 8.53679687 10.0625 9.25 C10.63613281 9.96800781 11.20976562 10.68601562 11.80078125 11.42578125 C13.54243384 13.61055341 15.27312674 15.80353398 17 18 C17.72678955 18.92329102 17.72678955 18.92329102 18.46826172 19.86523438 C20.26004935 22.14371975 22.04983643 24.42372473 23.83422852 26.70800781 C26.79574833 30.49285471 29.80179954 34.23815268 32.83886719 37.96264648 C33.94093924 39.31432068 35.04057633 40.66798408 36.13769531 42.02368164 C38.80237639 45.31616925 41.48840021 48.58349486 44.234375 51.80859375 C52.54509617 61.71226891 52.54509617 61.71226891 53.375 67.0625 C52.97786369 71.23243124 52.52810038 72.74590745 50 76 C47.62566549 77.36592989 45.45508796 78.41311211 42.9375 79.4375 C41.8091272 79.91968994 41.8091272 79.91968994 40.65795898 80.41162109 C35.7422207 82.49468113 30.79192069 84.49485111 25.84916687 86.51277161 C24.3614851 87.12036636 22.87403066 87.72851798 21.38679504 88.33720398 C17.6441012 89.868783 13.89881842 91.39293473 10.14624023 92.90014648 C-4.51993782 98.82749685 -16.67197549 104.64952103 -25.9375 117.875 C-26.43056641 118.56335938 -26.92363281 119.25171875 -27.43164062 119.9609375 C-28.62903908 121.63497029 -29.81568399 123.31668647 -31 125 C-35.22698377 124.45794536 -39.26677068 123.85906304 -43.3125 122.5 C-44.15425781 122.2421875 -44.99601562 121.984375 -45.86328125 121.71875 C-49.31577761 118.94160485 -49.35957067 115.16542252 -50 111 C-50.20310791 109.83098145 -50.40621582 108.66196289 -50.61547852 107.45751953 C-51.19269466 104.10970775 -51.74763156 100.7599962 -52.28710938 97.40600586 C-52.62612011 95.30556002 -52.97303169 93.20651424 -53.3203125 91.10742188 C-53.53954313 89.75528617 -53.75830944 88.40307509 -53.9765625 87.05078125 C-54.27167725 85.23574097 -54.27167725 85.23574097 -54.57275391 83.3840332 C-54.97337751 80.21086534 -55.07981901 77.19367452 -55 74 C-50.01931805 71.62375047 -45.01394312 69.30487404 -40 67 C-38.56285645 66.33411865 -38.56285645 66.33411865 -37.09667969 65.65478516 C-34.00946802 64.2318425 -30.91236942 62.83262423 -27.8125 61.4375 C-26.80888428 60.97166504 -25.80526855 60.50583008 -24.77124023 60.02587891 C-23.82192627 59.6035498 -22.8726123 59.1812207 -21.89453125 58.74609375 C-21.04737549 58.36122803 -20.20021973 57.9763623 -19.32739258 57.57983398 C-17 57 -17 57 -14.84204102 57.66210938 C-12.7689392 59.1678215 -11.86409972 60.42393353 -10.6328125 62.66015625 C-10.22160156 63.37107422 -9.81039062 64.08199219 -9.38671875 64.81445312 C-8.54576631 66.31280646 -7.71240817 67.81544755 -6.88671875 69.32226562 C-4.33275295 73.8810168 -4.33275295 73.8810168 0.3203125 75.99609375 C1.20460938 75.99738281 2.08890625 75.99867188 3 76 C4.53095761 74.00030193 4.53095761 74.00030193 5 71 C3.70109268 67.81390918 1.74995167 65.08060517 -0.1875 62.25 C-0.73833252 61.41380127 -1.28916504 60.57760254 -1.85668945 59.71606445 C-3.00010679 57.98187331 -4.15083931 56.25248468 -5.30859375 54.52783203 C-7.81700239 50.77897767 -10.24854386 46.98172379 -12.6875 43.1875 C-15.33542135 39.09030088 -17.99555117 35.00201787 -20.6875 30.93359375 C-21.10942627 30.29075439 -21.53135254 29.64791504 -21.96606445 28.9855957 C-22.75843716 27.77858543 -23.55614965 26.57505731 -24.36010742 25.37573242 C-26.13351456 22.6634386 -27 21.31513825 -27 18 C-24.90234375 16.30859375 -24.90234375 16.30859375 -21.9375 14.4375 C-20.85855469 13.74527344 -19.77960938 13.05304688 -18.66796875 12.33984375 C-18.08063965 11.96714355 -17.49331055 11.59444336 -16.88818359 11.21044922 C-13.47608235 9.02306908 -10.11717495 6.75565684 -6.75 4.5 C-5.45334164 3.6350918 -4.15648482 2.77048101 -2.859375 1.90625 C-1.91578125 1.2771875 -0.9721875 0.648125 0 0 Z " fill="#000000" transform="translate(382,95)"/>
<path d="M0 0 C7.07901522 0.58664091 13.44998095 3.07484815 20.10546875 5.4453125 C21.39256524 5.89851051 22.67986714 6.35112553 23.96736145 6.80319214 C27.35647752 7.9949004 30.74281677 9.19431069 34.12860107 10.39544678 C37.5027663 11.59105336 40.87938383 12.77968708 44.25585938 13.96875 C49.45090504 15.79903149 54.64463667 17.63298718 59.83740234 19.46972656 C68.88402055 22.66818587 77.9405935 25.83797619 87 29 C86.40039144 33.67887319 85.66702943 37.26427825 83.4375 41.4375 C82.98246094 42.30246094 82.52742188 43.16742188 82.05859375 44.05859375 C81.53458984 45.01958984 81.53458984 45.01958984 81 46 C77.0080046 44.71942356 73.17597695 43.27097951 69.33984375 41.58203125 C68.29892578 41.13279297 67.25800781 40.68355469 66.18554688 40.22070312 C64.01260093 39.27861411 61.84332333 38.32802033 59.67773438 37.36914062 C58.63810547 36.92376953 57.59847656 36.47839844 56.52734375 36.01953125 C55.58624756 35.60807861 54.64515137 35.19662598 53.67553711 34.77270508 C50.65006974 33.89893884 49.016115 34.29109529 46 35 C44.44892279 43.10444391 43.21117703 51.22834532 42.08984375 59.40234375 C41.91747696 60.64246719 41.74511017 61.88259064 41.56752014 63.16029358 C41.02199728 67.08572902 40.4793292 71.01155355 39.9375 74.9375 C39.22008043 80.13448291 38.49948112 85.33101373 37.77734375 90.52734375 C37.61378891 91.71899643 37.45023407 92.91064911 37.28172302 94.13841248 C37.05127037 95.79647667 37.05127037 95.79647667 36.81616211 97.48803711 C36.68229599 98.45857529 36.54842987 99.42911346 36.4105072 100.42906189 C36.05311321 102.66736085 35.59285025 104.81405987 35 107 C27.06808931 106.45297168 19.48096075 104.72315192 12 102 C10.55386158 99.10772316 11.52067838 97.61271271 12.44702148 94.54394531 C12.7874498 93.40225891 13.12787811 92.26057251 13.47862244 91.08428955 C13.85563797 89.84475525 14.2326535 88.60522095 14.62109375 87.328125 C15.00453635 86.04524237 15.38709784 84.76209608 15.76881409 83.47869873 C17.18914847 78.70998543 18.6245037 73.94582507 20.06115723 69.18200684 C21.27284258 65.16283341 22.47791081 61.14179604 23.67396736 57.11794281 C24.23691974 55.23382897 24.80959753 53.35262978 25.38243103 51.47149658 C25.72601151 50.31720154 26.06959198 49.16290649 26.42358398 47.97363281 C26.88111305 46.45712128 26.88111305 46.45712128 27.34788513 44.90997314 C28.03338857 41.8510081 28.11719956 39.12447459 28 36 C26.41342598 34.61612661 26.41342598 34.61612661 24 34 C21.47080683 35.05618104 19.38271937 36.14686591 17.0625 37.5625 C16.38026367 37.96073975 15.69802734 38.35897949 14.99511719 38.76928711 C10.75424515 41.26860834 6.58493103 43.8798267 2.41796875 46.5 C1.47751709 47.08966553 0.53706543 47.67933105 -0.43188477 48.28686523 C-2.29159941 49.45863207 -4.14513947 50.64026387 -5.99194336 51.83227539 C-6.8453833 52.37360107 -7.69882324 52.91492676 -8.578125 53.47265625 C-9.33512695 53.96000244 -10.09212891 54.44734863 -10.87207031 54.94946289 C-13 56 -13 56 -17 56 C-18.34409762 53.75583701 -19.67529896 51.50557204 -21 49.25 C-21.3815625 48.61578125 -21.763125 47.9815625 -22.15625 47.328125 C-24.17915652 43.86028524 -25 42.10651746 -25 38 C-20.0538405 36.00179711 -15.10590477 34.00808389 -10.15625 32.01855469 C-8.47183128 31.34075811 -6.78790926 30.66172583 -5.10449219 29.98144531 C-2.68813764 29.00522669 -0.27004601 28.03343024 2.1484375 27.0625 C2.9036972 26.75626709 3.65895691 26.45003418 4.43710327 26.13452148 C9.77225659 24 9.77225659 24 12 24 C12.4821145 19.90202674 12.17098103 18.2627808 9.8828125 14.74609375 C8.97788812 13.63142742 8.05810092 12.52868826 7.125 11.4375 C4.1007483 7.81602212 1.47654908 4.55693597 0 0 Z " fill="#000000" transform="translate(257,199)"/>
<path d="M0 0 C0.60585938 0.19335938 1.21171875 0.38671875 1.8359375 0.5859375 C3.66681192 11.9552093 5.49264295 23.32527846 7.3120575 34.69639015 C8.15706105 39.97654286 9.00379279 45.25640625 9.85449219 50.53564453 C10.67554874 55.63133279 11.49204186 60.72773323 12.3053894 65.82465744 C12.61634239 67.76814146 12.92893286 69.71136421 13.24319458 71.65431595 C13.68340766 74.37775507 14.11776554 77.10206875 14.55078125 79.82666016 C14.74714676 81.02860016 14.74714676 81.02860016 14.94747925 82.25482178 C15.60166438 86.41264731 15.9743347 90.36014305 15.8359375 94.5859375 C7.61232064 93.92948042 0.11034906 90.59071571 -7.56054688 87.73632812 C-14.39876693 85.1429201 -14.39876693 85.1429201 -21.5859375 84.73046875 C-25.5120598 84.57188084 -25.85330398 84.39789973 -28.40234375 81.7265625 C-29.45028627 80.44836359 -30.47412201 79.1501251 -31.4765625 77.8359375 C-32.59194511 76.45947299 -33.7091637 75.08449438 -34.828125 73.7109375 C-35.38145508 73.01871094 -35.93478516 72.32648438 -36.50488281 71.61328125 C-38.99564975 68.56982501 -41.66137191 65.7027043 -44.3515625 62.8359375 C-46.87336721 60.13321269 -49.11327864 57.66211329 -51.1640625 54.5859375 C-50.82315237 51.3746039 -49.54060014 49.4890265 -47.50390625 47.046875 C-46.96169434 46.38913086 -46.41948242 45.73138672 -45.86083984 45.05371094 C-45.28027832 44.3630957 -44.6997168 43.67248047 -44.1015625 42.9609375 C-42.90455605 41.51594953 -41.70794014 40.07063795 -40.51171875 38.625 C-39.93180176 37.92793945 -39.35188477 37.23087891 -38.75439453 36.51269531 C-36.80677294 34.15306535 -34.92093474 31.74819127 -33.0390625 29.3359375 C-8.299864 -1.58806062 -8.299864 -1.58806062 0 0 Z " fill="#000000" transform="translate(276.1640625,104.4140625)"/>
<path d="M0 0 C4.91807864 3.8196605 8.25390605 7.80468712 11.125 13.3125 C11.46273437 13.93640625 11.80046875 14.5603125 12.1484375 15.203125 C14.91338298 21.2403454 14.60469671 27.7996946 14.125 34.3125 C13.63 35.3025 13.63 35.3025 13.125 36.3125 C9.36795995 34.8012412 7.48630557 32.59663628 4.9375 29.5 C-0.63435626 23.13741826 -6.77972901 18.90644813 -15.3203125 18.07421875 C-23.64642193 17.84361222 -30.60700971 19.58406035 -37.3125 24.6875 C-41.61296274 29.09285208 -43.05134804 32.58833806 -43.3125 38.6875 C-43.1243216 44.02163395 -42.27976219 48.11636065 -38.875 52.3125 C-34.49333235 56.31236259 -30.21822214 58.3752412 -24.4375 59.5625 C-17.40312219 61.16212546 -13.454157 66.01816013 -8.875 71.3125 C-9.37 72.7975 -9.37 72.7975 -9.875 74.3125 C-23.52209029 76.83823014 -36.86031235 75.70116024 -48.6328125 67.953125 C-57.14457419 61.72500669 -62.76344411 53.08741966 -65.55078125 42.82421875 C-67.14804257 30.45025452 -66.14422764 18.76138235 -58.625 8.4375 C-43.58326494 -9.29827716 -19.40210184 -13.13574733 0 0 Z " fill="#000000" transform="translate(360.875,34.6875)"/>
<path d="M0 0 C3.37677964 1.6681079 6.43340244 3.76977699 9.54296875 5.88671875 C10.46604324 6.4995723 11.38911774 7.11242584 12.34016418 7.74385071 C15.29803625 9.71229489 18.24268063 11.69959613 21.1875 13.6875 C23.11831667 14.97584508 25.04995027 16.26296672 26.98242188 17.54882812 C31.73891225 20.7193011 36.47783969 23.91493705 41.21136475 27.11956787 C43.99689909 28.99790899 46.79338658 30.85893185 49.59228516 32.71728516 C51.3286617 33.8802186 53.06483685 35.04345283 54.80078125 36.20703125 C55.6021904 36.73439377 56.40359955 37.26175629 57.22929382 37.80509949 C57.96227188 38.29972183 58.69524994 38.79434418 59.45043945 39.30395508 C60.09076614 39.73017654 60.73109283 40.15639801 61.39082336 40.59553528 C63.2878704 42.25124887 64.14406079 43.63803978 65 46 C64.08129883 48.51782227 64.08129883 48.51782227 62.45703125 51.31640625 C61.87759766 52.32767578 61.29816406 53.33894531 60.70117188 54.38085938 C59.7662793 55.95577148 59.7662793 55.95577148 58.8125 57.5625 C58.20857422 58.61630859 57.60464844 59.67011719 56.98242188 60.75585938 C52.07295034 69.21916179 52.07295034 69.21916179 49 72 C43.74169991 67.4320354 38.54737539 62.79995532 33.39453125 58.11328125 C32.20923828 57.06720703 32.20923828 57.06720703 31 56 C30.24203125 55.24976563 29.4840625 54.49953125 28.703125 53.7265625 C24.54951997 51.07353732 20.497769 51.84544894 15.79492188 52.24414062 C13.71484375 52.34765625 13.71484375 52.34765625 10 52 C6.0161287 48.0700962 4.26748126 43.34602469 2.29296875 38.2265625 C1.96331619 37.3845932 1.63366364 36.5426239 1.29402161 35.67514038 C0.60287158 33.90015197 -0.08350854 32.12329969 -0.76538086 30.34472656 C-1.80911861 27.63378263 -2.87922746 24.93426893 -3.95117188 22.234375 C-4.62142839 20.50323698 -5.29010182 18.77148502 -5.95703125 17.0390625 C-6.43811089 15.83716782 -6.43811089 15.83716782 -6.9289093 14.61099243 C-8.81244708 9.60434705 -9.4184652 6.21590767 -8 1 C-5.00368637 -0.49815682 -3.37012412 -0.41785842 0 0 Z " fill="#000000" transform="translate(86,84)"/>
<path d="M0 0 C1.6484375 1.70703125 1.6484375 1.70703125 3.375 3.8125 C5.33500948 6.19762569 6.92090091 7.94809965 9.51675415 9.65135193 C12.73279811 12.69307872 13.10844052 15.47541935 13.64599609 19.68383789 C13.75962683 20.43435708 13.87325756 21.18487627 13.99033165 21.95813847 C14.22663057 23.52853544 14.45406857 25.10028937 14.672966 26.67320633 C14.980812 28.86348049 15.31729115 31.04654552 15.66876221 33.23019409 C16.3563772 37.50297347 17.01201676 41.78026127 17.6640625 46.05859375 C17.90390678 47.62461275 18.14384832 49.19061686 18.38388062 50.75660706 C18.88092491 54.0024976 19.37652379 57.24860461 19.87109375 60.49487305 C20.50113231 64.62926446 21.1353254 68.76300662 21.77063942 72.89659023 C22.26491908 76.11613817 22.75677175 79.33605345 23.24793625 82.55607796 C23.48075737 84.08024243 23.71436173 85.6042875 23.94881058 87.12820244 C25.16909653 95.06790408 26.33558443 102.99088887 27 111 C19.97790059 110.51008609 12.9273809 108.87342076 7 105 C4.61702632 100.62489386 4.29956645 96.0096246 3.8125 91.125 C3.61958796 89.64530102 3.41993546 88.16646878 3.21435547 86.68847656 C2.86704892 84.16944402 2.52746378 81.65047 2.20935059 79.12756348 C1.14324622 70.69040107 -0.19977218 62.30501784 -1.57421875 53.9140625 C-1.80611489 52.49298542 -2.03792107 51.07189366 -2.26963806 49.65078735 C-2.62013868 47.50236555 -2.97077467 45.35396623 -3.32179546 43.20562935 C-4.5722169 35.5511271 -5.80868575 27.89462125 -7.0234375 20.234375 C-7.32292549 18.3878685 -7.32292549 18.3878685 -7.62846375 16.50405884 C-8.5052157 10.94174841 -9.26036619 5.63337756 -9 0 C-3.375 -1.125 -3.375 -1.125 0 0 Z " fill="#000000" transform="translate(296,99)"/>
<path d="M0 0 C1.43352212 0.00015908 2.86704998 0.00585132 4.30053711 0.01586914 C5.43041298 0.01799156 5.43041298 0.01799156 6.58311462 0.02015686 C8.99807646 0.02577163 11.41294687 0.03832656 13.82788086 0.05102539 C15.46134307 0.05603849 17.09480672 0.06060173 18.72827148 0.06469727 C22.74067671 0.07574585 26.75301326 0.09302033 30.76538086 0.11352539 C33.89726659 9.42071122 34.89726312 16.85399109 30.76147461 25.97290039 C29.92640721 27.61229651 29.07291339 29.24241447 28.20288086 30.86352539 C27.75468994 31.72461914 27.30649902 32.58571289 26.84472656 33.47290039 C25.50389291 36.03040321 24.1380394 38.57299193 22.76538086 41.11352539 C22.18433594 42.20890625 22.18433594 42.20890625 21.59155273 43.32641602 C15.07886366 55.57120352 15.07886366 55.57120352 9.76538086 59.11352539 C5.33910768 59.75734694 3.319182 59.42119269 -0.60961914 57.23852539 C-3.23461914 55.11352539 -3.23461914 55.11352539 -4.23461914 53.11352539 C-4.33005423 51.45416808 -4.36257055 49.79100506 -4.36401367 48.12890625 C-4.36716583 47.0912059 -4.37031799 46.05350555 -4.37356567 44.98435974 C-4.37154144 43.86038284 -4.36951721 42.73640594 -4.36743164 41.57836914 C-4.36838837 40.42937637 -4.36934509 39.28038361 -4.37033081 38.09657288 C-4.37101219 35.66464178 -4.36916081 33.23270887 -4.36499023 30.80078125 C-4.35963657 27.06319121 -4.36493918 23.32572107 -4.37133789 19.58813477 C-4.3706772 17.23071262 -4.36939622 14.87329056 -4.36743164 12.51586914 C-4.36945587 11.38986801 -4.3714801 10.26386688 -4.37356567 9.10374451 C-4.37041351 8.06919632 -4.36726135 7.03464813 -4.36401367 5.96875 C-4.36321808 5.05322861 -4.36242249 4.13770721 -4.36160278 3.19444275 C-4.15099907 -0.25678074 -3.55543089 0.12478492 0 0 Z " fill="#000000" transform="translate(299.234619140625,425.886474609375)"/>
<path d="M0 0 C5.66129431 4.69766975 10.85228904 9.74723372 16 15 C14.72594127 17.71033085 13.33943761 20.01170741 11.46875 22.34765625 C10.98792969 22.95287109 10.50710937 23.55808594 10.01171875 24.18164062 C9.51285156 24.80232422 9.01398438 25.42300781 8.5 26.0625 C7.50944672 27.30261128 6.51982835 28.54347004 5.53125 29.78515625 C5.09361328 30.33051025 4.65597656 30.87586426 4.20507812 31.43774414 C0.13436662 36.71498947 0.95861899 40.76614839 1.22265625 47.23828125 C0.93868381 52.03592093 -0.48587152 55.06041393 -3.41796875 58.81640625 C-6.53733874 61.15015713 -10.21113069 61.20760928 -14 61 C-18.89979403 58.6887764 -21.32822393 55.65086946 -24 51 C-25.89802648 45.30592056 -26.05633171 39.11290671 -24.1171875 33.3984375 C-17.91417261 21.40098955 -8.88982702 10.12155004 0 0 Z " fill="#000000" transform="translate(156,258)"/>
<path d="M0 0 C10.13934131 5.34494689 18.25851372 16.81757496 23.9765625 26.34765625 C16.5515625 31.79265625 16.5515625 31.79265625 8.9765625 37.34765625 C4.63983631 35.17929315 3.67098572 33.72599271 0.9765625 29.84765625 C-2.51070449 25.40931644 -4.57390737 23.6589034 -10.2109375 22.97265625 C-11.2215625 22.89273438 -12.2321875 22.8128125 -13.2734375 22.73046875 C-17.47861257 22.14508927 -19.18860478 20.41234027 -22.0234375 17.34765625 C-23.76352404 13.86748317 -23.60808618 10.1445881 -23.0234375 6.34765625 C-17.61607753 -0.91365571 -8.50684279 -2.74255356 0 0 Z " fill="#000000" transform="translate(350.0234375,62.65234375)"/>
<path d="M0 0 C2.32011706 1.78875691 3.49192781 3.77819958 4.94921875 6.31005859 C5.73039062 7.64037109 5.73039062 7.64037109 6.52734375 8.99755859 C7.69921875 11.31005859 7.69921875 11.31005859 7.69921875 13.31005859 C3.68071954 15.1285881 -0.33950594 16.9432301 -4.36132812 18.75439453 C-5.72736121 19.37020793 -7.0929291 19.9870544 -8.45800781 20.60498047 C-10.42780117 21.4964198 -12.39927475 22.384048 -14.37109375 23.27099609 C-15.55461426 23.80515137 -16.73813477 24.33930664 -17.95751953 24.88964844 C-21.03740797 26.19816245 -24.11117758 27.30348593 -27.30078125 28.31005859 C-29.64848768 24.78849895 -29.67747739 22.80234016 -29.92578125 18.62255859 C-30.00054687 17.44306641 -30.0753125 16.26357422 -30.15234375 15.04833984 C-30.20132812 14.14470703 -30.2503125 13.24107422 -30.30078125 12.31005859 C-26.39587957 10.40172234 -22.48171077 8.51442826 -18.55761719 6.64599609 C-17.22414533 6.00748694 -15.8933734 5.36330709 -14.56542969 4.71337891 C-12.65591131 3.78002687 -10.73760714 2.86750845 -8.81640625 1.95849609 C-7.66430664 1.40339355 -6.51220703 0.84829102 -5.32519531 0.27636719 C-2.30078125 -0.68994141 -2.30078125 -0.68994141 0 0 Z " fill="#000000" transform="translate(353.30078125,130.68994140625)"/>
<path d="M0 0 C4.1952696 0.48737756 5.87845698 2.71063641 8.5625 5.8125 C9.32691406 6.68519531 10.09132812 7.55789062 10.87890625 8.45703125 C11.57886719 9.29621094 12.27882812 10.13539063 13 11 C13.60714844 11.66386719 14.21429688 12.32773438 14.83984375 13.01171875 C16 15 16 15 15.94140625 17.41796875 C14.77630568 20.61353503 13.12185401 22.71207856 10.9375 25.3125 C10.20402344 26.19550781 9.47054687 27.07851563 8.71484375 27.98828125 C7.86599609 28.98408203 7.86599609 28.98408203 7 30 C2.06504328 29.10694393 -0.38097864 26.13398983 -3.8125 22.6875 C-4.42287109 22.10548828 -5.03324219 21.52347656 -5.66210938 20.92382812 C-6.23380859 20.35470703 -6.80550781 19.78558594 -7.39453125 19.19921875 C-7.91893799 18.68190186 -8.44334473 18.16458496 -8.98364258 17.6315918 C-10 16 -10 16 -9.79199219 13.98852539 C-8.5507471 10.87202068 -6.48513231 8.37147108 -4.4375 5.75 C-4.01275391 5.19570312 -3.58800781 4.64140625 -3.15039062 4.0703125 C-2.10601659 2.70910589 -1.05377536 1.35394167 0 0 Z " fill="#000000" transform="translate(173,235)"/>
</svg>
