<?xml version="1.0" encoding="UTF-8"?>
<svg width="512" height="512" viewBox="0 0 512 512" fill="none" xmlns="http://www.w3.org/2000/svg">
  <circle cx="256" cy="256" r="248" fill="#2563EB" stroke="#1E40AF" stroke-width="16"/>
  <path d="M256 128C256 119.163 263.163 112 272 112H368C376.837 112 384 119.163 384 128V224C384 232.837 376.837 240 368 240H272C263.163 240 256 232.837 256 224V128Z" fill="white"/>
  <path d="M128 272C128 263.163 135.163 256 144 256H240C248.837 256 256 263.163 256 272V368C256 376.837 248.837 384 240 384H144C135.163 384 128 376.837 128 368V272Z" fill="white"/>
</svg>